<?xml version="1.0" encoding="utf-8"?>
<!-- Generator: Adobe Illustrator 26.0.1, SVG Export Plug-In . SVG Version: 6.00 Build 0)  -->
<svg version="1.1" id="Ebene_1" xmlns="http://www.w3.org/2000/svg" xmlns:xlink="http://www.w3.org/1999/xlink" x="0px" y="0px"
	 width="466.9px" height="187.5px" viewBox="0 0 466.9 187.5" style="enable-background:new 0 0 466.9 187.5;" xml:space="preserve"
	>
<style type="text/css">
	.st0{fill:#00378B;}
	.st1{fill-rule:evenodd;clip-rule:evenodd;fill:#00378B;}
	.st2{fill:url(#SVGID_1_);}
	.st3{fill-rule:evenodd;clip-rule:evenodd;fill:url(#SVGID_00000070799572601208911450000012882646992051897275_);}
</style>
<g class="sign">
	<g>
		<g>
			<path class="st0" d="M359.3,187.5c1.3-0.6,1.9-0.8,2.5-1.1c24.4-13.3,46.3-29.8,65.1-50.3c18-19.6,31.4-41.9,37-68.3
				c3-14,4.5-28.2,0.8-42.3c-3-11.7-9.9-20.2-21.9-23.5c-5.1-1.4-10.5-1.8-15.8-2c-11.3-0.3-22.2,2.4-33.2,5.5
				c0.3,0.7,0.5,1.2,0.7,1.6c9.4,20.2,12.5,41.5,10.9,63.5c-1.7,22.6-8,44.1-16.9,64.9C380.8,153.7,371.2,170.8,359.3,187.5z"/>
			<path class="st1" d="M359.3,187.5c11.9-16.7,21.4-33.9,29.2-52c8.9-20.8,15.1-42.2,16.9-64.9c1.7-22.1-1.5-43.3-10.9-63.5
				c-0.2-0.5-0.4-1-0.7-1.6c11-3.1,21.9-5.7,33.2-5.5c5.3,0.1,10.7,0.6,15.8,2c11.9,3.2,18.9,11.7,21.9,23.5
				c3.6,14.2,2.2,28.3-0.8,42.3c-5.6,26.4-19,48.7-37,68.3c-18.8,20.4-40.7,37-65.1,50.3C361.3,186.7,360.6,187,359.3,187.5z"/>
		</g>
	</g>
</g>
<g class="sign">
	<g>
		<g>
			<linearGradient id="SVGID_1_" gradientUnits="userSpaceOnUse" x1="403.9636" y1="138.2265" x2="365.3165" y2="32.0446">
				<stop  offset="0" style="stop-color:#00378B"/>
				<stop  offset="0.5" style="stop-color:#3DB5B0"/>
			</linearGradient>
			<path class="st2" d="M352.4,157c0.9-0.4,1.4-0.6,1.8-0.8c17.3-9.4,32.8-21.2,46.2-35.7c12.8-13.9,22.3-29.8,26.3-48.5
				c2.1-9.9,3.2-20,0.6-30c-2.1-8.3-7-14.3-15.5-16.6c-3.6-1-7.5-1.3-11.2-1.4c-8-0.2-15.8,1.7-23.6,3.9c0.2,0.5,0.4,0.8,0.5,1.2
				c6.7,14.3,8.9,29.4,7.7,45.1c-1.2,16.1-5.7,31.3-12,46C367.6,133,360.8,145.1,352.4,157z"/>
			
				<linearGradient id="SVGID_00000019661456379983407040000015588332853548407486_" gradientUnits="userSpaceOnUse" x1="403.9636" y1="138.2265" x2="365.3165" y2="32.0446">
				<stop  offset="0" style="stop-color:#00378B"/>
				<stop  offset="0.5" style="stop-color:#3DB5B0"/>
			</linearGradient>
			<path style="fill-rule:evenodd;clip-rule:evenodd;fill:url(#SVGID_00000019661456379983407040000015588332853548407486_);" d="
				M352.4,157c8.4-11.9,15.2-24,20.7-36.9c6.3-14.7,10.7-30,12-46c1.2-15.7-1-30.7-7.7-45.1c-0.2-0.3-0.3-0.7-0.5-1.2
				c7.8-2.2,15.5-4.1,23.6-3.9c3.7,0.1,7.6,0.4,11.2,1.4c8.5,2.3,13.4,8.3,15.5,16.6c2.6,10,1.5,20.1-0.6,30
				c-4,18.7-13.5,34.6-26.3,48.5c-13.3,14.5-28.9,26.2-46.2,35.7C353.7,156.4,353.3,156.6,352.4,157z"/>
		</g>
	</g>
</g>
<polygon class="st0" points="0,137 36.6,137 104.4,90 69.6,90 26.8,119.6 26.8,90 0,90 "/>
<polygon class="st0" points="162.1,90 162.1,137 189,137 218.9,116.4 218.9,137.1 246.7,137.1 315.9,90 280.9,90 246.3,113.9 
	246.3,90 222.9,90 188.6,113.2 188.6,90 "/>
<path class="st0" d="M133,90c-3.8,0-20.8,0-20.8,0l-68.7,46.9c0,0,58.1,0.6,71.5-1c42.4-5.1,44.1-22.8,44.1-22.8
	C161.8,102.9,149.7,89.9,133,90z M131.2,112.8c0,0-3.3,5.8-17,7.7c-3.7,0.5-16,0.6-16,0.6l23-16.1c0,0,1.3,0,2.3,0
	C130.1,105,134.1,108.8,131.2,112.8z"/>
<path class="st0" d="M344.6,89.9v13c0,0-4,0.1-6.1,0.1c-3.1,0-3.7,2.8-3.5,4.1c0.2,1.7,2.5,4,4.3,5.7c2.3,2.3,7.3,6.6,7.1,12.4
	c-0.2,5.8-6.4,11.7-29.7,11.7c-23.2,0-65,0-65,0l21.6-14.9h37.2c4.1,0.1,10.3-0.9,6.4-5.8c-1.6-2.5-9.5-7.9-9.2-14.3
	c0.3-6.4,8-12.1,18.7-12L344.6,89.9z"/>
<g>
	<path class="st0" d="M4.2,150.5H0.8v-3.7h3.4V150.5z M0.8,156.5h3.4v22.5H0.8V156.5z"/>
	<path class="st0" d="M17.9,161.8c0-1.7,0-3.5-0.2-5.3H21v4h0.1c1.1-2,3.1-4.5,8.8-4.5c6.7,0,9.3,3.7,9.3,8.7v14.4h-3.4v-13.7
		c0-4.2-1.8-7-6.4-7c-6.1,0-8,4.5-8,8.2v12.4h-3.4V161.8z"/>
	<path class="st0" d="M64.5,158.9h-6.2v14.6c0,2,0.9,3.7,3.6,3.7c1.3,0,2.1-0.2,3.1-0.5l0.2,2.3c-0.8,0.3-2.4,0.6-4.1,0.6
		c-6,0-6.2-3.4-6.2-7.5v-13.2h-5.3v-2.4H55v-5.4l3.4-1v6.4h6.2V158.9z"/>
	<path class="st0" d="M94.1,178.4c-2.3,0.8-5.4,1.2-7.9,1.2c-9,0-12.3-5-12.3-11.8c0-6.9,4.6-11.8,11.4-11.8
		c7.7,0,10.8,5.1,10.8,11.2v1.4H77.5c0,4.8,3.1,8.6,8.9,8.6c2.4,0,6-0.8,7.6-1.7V178.4z M92.4,166.2c0-3.9-1.9-7.8-6.9-7.8
		c-4.9,0-8,4.1-8,7.8H92.4z"/>
	<path class="st0" d="M107.8,161.6c0-2.5,0-3.4-0.2-5h3.4v4.3h0.1c1.2-2.5,3.5-4.9,7-4.9c0.8,0,1.8,0.1,2.3,0.3v2.9
		c-0.7-0.2-1.6-0.3-2.4-0.3c-5.3,0-6.8,4.9-6.8,9v11.1h-3.4V161.6z"/>
	<path class="st0" d="M131.8,161.8c0-1.7,0-3.5-0.2-5.3h3.2v4h0.1c1.1-2,3.1-4.5,8.8-4.5c6.7,0,9.3,3.7,9.3,8.7v14.4h-3.4v-13.7
		c0-4.2-1.8-7-6.4-7c-6.1,0-8,4.5-8,8.2v12.4h-3.4V161.8z"/>
	<path class="st0" d="M182.3,175.4h-0.1c-1.5,2.7-5.3,4.1-8.6,4.1c-7.7,0-8.9-4.3-8.9-6.4c0-7.6,9.7-7.9,16.7-7.9h0.6v-1.1
		c0-3.8-1.7-5.8-6.2-5.8c-2.8,0-5.5,0.5-8,1.9v-2.7c2.1-0.8,5.6-1.5,8-1.5c6.7,0,9.5,2.5,9.5,8.4v9.9c0,1.8,0,3.2,0.3,4.7h-3.3
		V175.4z M182,167.7h-1c-5.8,0-12.7,0.5-12.7,5.4c0,3,2.6,4.1,5.6,4.1c7.9,0,8-5.7,8-8.1V167.7z"/>
	<path class="st0" d="M210.3,158.9h-6.2v14.6c0,2,0.9,3.7,3.6,3.7c1.3,0,2.1-0.2,3.1-0.5l0.2,2.3c-0.8,0.3-2.4,0.6-4.1,0.6
		c-6,0-6.2-3.4-6.2-7.5v-13.2h-5.3v-2.4h5.3v-5.4l3.4-1v6.4h6.2V158.9z"/>
	<path class="st0" d="M225,150.5h-3.4v-3.7h3.4V150.5z M221.7,156.5h3.4v22.5h-3.4V156.5z"/>
	<path class="st0" d="M249.4,156c8.8,0,12.7,5.7,12.7,11.8c0,6.1-3.9,11.8-12.7,11.8c-8.8,0-12.7-5.7-12.7-11.8
		C236.7,161.7,240.6,156,249.4,156z M249.4,177.2c5.9,0,9-4.2,9-9.4c0-5.2-3.1-9.4-9-9.4c-5.9,0-9,4.2-9,9.4
		C240.4,173,243.5,177.2,249.4,177.2z"/>
	<path class="st0" d="M273.7,161.8c0-1.7,0-3.5-0.2-5.3h3.2v4h0.1c1.1-2,3.1-4.5,8.8-4.5c6.7,0,9.3,3.7,9.3,8.7v14.4h-3.4v-13.7
		c0-4.2-1.8-7-6.4-7c-6.1,0-8,4.5-8,8.2v12.4h-3.4V161.8z"/>
	<path class="st0" d="M324.2,175.4h-0.1c-1.5,2.7-5.3,4.1-8.6,4.1c-7.7,0-8.9-4.3-8.9-6.4c0-7.6,9.7-7.9,16.7-7.9h0.6v-1.1
		c0-3.8-1.7-5.8-6.2-5.8c-2.8,0-5.5,0.5-8,1.9v-2.7c2.1-0.8,5.6-1.5,8-1.5c6.7,0,9.5,2.5,9.5,8.4v9.9c0,1.8,0,3.2,0.3,4.7h-3.3
		V175.4z M323.9,167.7h-1c-5.8,0-12.7,0.5-12.7,5.4c0,3,2.6,4.1,5.6,4.1c7.9,0,8-5.7,8-8.1V167.7z"/>
	<path class="st0" d="M340.5,145.9h3.4v33.1h-3.4V145.9z"/>
</g>
</svg>
