<?xml version="1.0" encoding="utf-8"?>
<!-- Generator: Adobe Illustrator 19.2.1, SVG Export Plug-In . SVG Version: 6.00 Build 0)  -->
<svg version="1.1" id="layer" xmlns="http://www.w3.org/2000/svg" xmlns:xlink="http://www.w3.org/1999/xlink" x="0px" y="0px"
	 viewBox="0 0 652 652" style="enable-background:new 0 0 652 652;" xml:space="preserve">
<style type="text/css">
	.st0{fill:#005DA6;}
	.st1{fill:#00A43D;}
	.st2{fill:#00A93B;}
</style>
<rect x="128.2" y="76.2" class="st0" width="396.6" height="388.2"/>
<path class="st1" d="M157.6,537.6V528h25.3v22.8c-2.5,2.3-6,4.4-10.7,6.2c-4.7,1.8-9.4,2.7-14.2,2.7c-6.1,0-11.4-1.3-15.9-3.8
	c-4.5-2.5-7.9-6.1-10.2-10.7c-2.3-4.7-3.4-9.7-3.4-15.2c0-5.9,1.3-11.2,3.8-15.8c2.5-4.6,6.2-8.2,11.1-10.6
	c3.7-1.9,8.4-2.8,13.9-2.8c7.2,0,12.9,1.5,16.9,4.5c4.1,3,6.7,7.1,7.8,12.3l-11.6,2.1c-0.8-2.8-2.4-5-4.6-6.6
	c-2.3-1.6-5.1-2.4-8.5-2.4c-5.1,0-9.2,1.6-12.2,4.8c-3,3.2-4.5,7.9-4.5,14.2c0,6.8,1.5,11.9,4.6,15.2c3.1,3.4,7.1,5.1,12,5.1
	c2.5,0,4.9-0.5,7.4-1.4c2.5-0.9,4.6-2.1,6.4-3.5v-7.2H157.6z M204.2,545.8c0-7,0.3-11.6,0.9-13.8c0.6-2.2,1.5-3.7,2.6-4.6
	c1.1-0.8,2.4-1.3,4-1.3c1.6,0,3.4,0.6,5.3,1.8l3.4-9.5c-2.4-1.4-4.8-2.1-7.4-2.1c-1.8,0-3.4,0.4-4.8,1.3c-1.4,0.9-3,2.7-4.8,5.4
	v-5.9h-10.4v41.2h11.1V545.8z M249.5,545.4c-0.6,2.1-1.5,3.6-2.7,4.5c-1.2,0.9-2.7,1.4-4.4,1.4c-2.6,0-4.7-0.9-6.4-2.7
	c-1.7-1.8-2.6-4.3-2.7-7.6h27.9c0.2-8.4-1.6-14.5-5.2-18.6c-3.6-4-8.6-6.1-14.8-6.1c-5.6,0-10.2,1.9-13.8,5.8
	c-3.6,3.9-5.5,9.2-5.5,16c0,5.7,1.4,10.5,4.2,14.2c3.5,4.7,8.9,7,16.3,7c4.6,0,8.5-1,11.6-3.1c3.1-2.1,5.3-5.1,6.8-9.1L249.5,545.4
	 M233.5,534.3c0-3,0.8-5.3,2.3-7c1.6-1.7,3.6-2.6,6-2.6c2.3,0,4.2,0.8,5.8,2.5c1.6,1.6,2.4,4,2.5,7.2H233.5z M294.6,545.4
	c-0.6,2.1-1.5,3.6-2.7,4.5c-1.2,0.9-2.7,1.4-4.4,1.4c-2.6,0-4.7-0.9-6.4-2.7c-1.7-1.8-2.6-4.3-2.7-7.6h27.9
	c0.2-8.4-1.6-14.5-5.2-18.6c-3.6-4-8.6-6.1-14.8-6.1c-5.6,0-10.2,1.9-13.8,5.8c-3.6,3.9-5.5,9.2-5.5,16c0,5.7,1.4,10.5,4.2,14.2
	c3.5,4.7,8.9,7,16.3,7c4.6,0,8.5-1,11.6-3.1c3.1-2.1,5.3-5.1,6.8-9.1L294.6,545.4 M278.6,534.3c0-3,0.8-5.3,2.3-7
	c1.6-1.7,3.6-2.6,6-2.6c2.3,0,4.2,0.8,5.8,2.5c1.6,1.6,2.4,4,2.5,7.2H278.6z M353.6,532.9c0-3.2-0.2-5.6-0.6-7.3
	c-0.4-1.7-1.2-3.2-2.2-4.6c-1-1.3-2.6-2.4-4.6-3.3c-2-0.9-4.3-1.3-6.7-1.3c-5.6,0-10.2,2.3-13.9,7v-6.1h-10.4v41.2h11.1v-18.7
	c0-4.6,0.3-7.8,0.8-9.5c0.6-1.7,1.6-3.1,3.1-4.1c1.5-1,3.3-1.5,5.2-1.5c1.5,0,2.8,0.3,3.9,1.1c1.1,0.7,1.8,1.7,2.3,3
	c0.5,1.3,0.7,4.2,0.7,8.6v21h11.1V532.9z M394.7,559.5v-17.2l9.5-9.5l16,26.7h15.2l-23.1-34.8l21.9-22.1h-15.8l-23.7,25.2v-25.2H383
	v56.9H394.7z M465.6,546.4c-0.6,2.1-1.5,3.6-2.7,4.5c-1.2,0.9-2.7,1.4-4.4,1.4c-2.6,0-4.7-0.9-6.4-2.7c-1.7-1.8-2.6-4.3-2.7-7.6
	h27.9c0.2-8.4-1.6-14.5-5.2-18.6c-3.6-4-8.6-6.1-14.8-6.1c-5.6,0-10.2,1.9-13.8,5.8c-3.6,3.9-5.5,9.2-5.5,16
	c0,5.7,1.4,10.5,4.2,14.2c3.5,4.7,8.9,7,16.3,7c4.6,0,8.5-1,11.6-3.1c3.1-2.1,5.3-5.1,6.8-9.1L465.6,546.4 M449.6,535.3
	c0-3,0.8-5.3,2.3-7c1.6-1.7,3.6-2.6,6-2.6c2.3,0,4.2,0.8,5.8,2.5c1.6,1.6,2.4,4,2.5,7.2H449.6z M497.1,559.6
	c-0.7,2.3-1.6,4.2-2.8,5.6c-1.3,1.5-3.2,2.2-5.8,2.2c-1.4,0-3-0.2-4.7-0.5l1,8.6c2.1,0.5,4.2,0.7,6.3,0.7c2.1,0,4-0.2,5.7-0.7
	c1.7-0.4,3.1-1,4.2-1.8c1.2-0.8,2.2-1.8,3.1-3.1c0.9-1.3,1.8-3.1,2.8-5.5l2.7-7.2l14.8-39.7h-11.6l-9.8,29.3l-10.1-29.3H481
	L497.1,559.6z"/>
<path class="st2" d="M272.7,219.2c-8-49.2-51.4-87-103.8-87c-14.4,0-28.1,2.9-40.7,8V194c10.6-9.9,24.9-16.1,40.7-16.1
	c32.4,0,58.7,25.8,58.7,57.6S201.3,293,168.9,293c-15.8,0-30.1-6.1-40.7-16.1v53.7c12.5,5.1,26.2,8,40.7,8c49.2,0,90.4-33.3,102-78
	h115.7v49.6h49.7v-29.9h22.3v20.3h48.9v-40h17.4v-41.4H272.7z"/>
</svg>
